<?xml version="1.0" encoding="UTF-8"?>
<svg xmlns="http://www.w3.org/2000/svg" xmlns:xlink="http://www.w3.org/1999/xlink" width="24pt" height="24pt" viewBox="0 0 24 24" version="1.1">
<g id="surface2664902">
<path style="fill-rule:nonzero;fill:rgb(0%,0%,0%);fill-opacity:1;stroke-width:14;stroke-linecap:butt;stroke-linejoin:round;stroke:rgb(3.921569%,3.921569%,3.921569%);stroke-opacity:1;stroke-miterlimit:10;" d="M 172.012106 14.333333 L 172.012106 28.678773 L -0.0121059 28.678773 L -0.0121059 14.333333 Z M 172.012106 78.82728 L 172.012106 93.17272 L -0.0121059 93.17272 L -0.0121059 78.82728 Z M 172.012106 143.321227 L 172.012106 157.666667 L -0.0121059 157.666667 L -0.0121059 143.321227 Z M 172.012106 143.321227 " transform="matrix(0.12907,0,0,0.12907,0.9,0.9)"/>
<path style=" stroke:none;fill-rule:nonzero;fill:rgb(0%,0%,0%);fill-opacity:1;" d="M 0.898438 2.75 L 0.898438 4.601562 L 23.101562 4.601562 L 23.101562 2.75 Z M 0.898438 11.074219 L 0.898438 12.925781 L 23.101562 12.925781 L 23.101562 11.074219 Z M 0.898438 19.398438 L 0.898438 21.25 L 23.101562 21.25 L 23.101562 19.398438 Z M 0.898438 19.398438 "/>
</g>
</svg>
